<svg width="16" height="16" viewBox="0 0 16 16" fill="none" xmlns="http://www.w3.org/2000/svg">
<g id="Capa_1">
<g id="Group">
<g id="Group_2">
<path id="Vector" d="M10.3674 8.66409L9.02733 10.0087C8.48392 10.554 7.5278 10.5657 6.97264 10.0087L5.63255 8.66409L0.81955 13.4927C0.998706 13.5756 1.19624 13.625 1.40624 13.625H14.5937C14.8037 13.625 15.0012 13.5756 15.1803 13.4927L10.3674 8.66409Z" fill="white"/>
</g>
</g>
<g id="Group_3">
<g id="Group_4">
<path id="Vector_2" d="M14.5937 2.375H1.40624C1.19624 2.375 0.998704 2.42444 0.819611 2.50728L5.96264 7.66738C5.96299 7.66772 5.96339 7.66778 5.96374 7.66813C5.96408 7.66847 5.96414 7.66894 5.96414 7.66894L7.63642 9.34675C7.81405 9.52438 8.18599 9.52438 8.36361 9.34675L10.0355 7.66922C10.0355 7.66922 10.036 7.66847 10.0363 7.66813C10.0363 7.66813 10.037 7.66772 10.0374 7.66738L15.1803 2.50725C15.0012 2.42438 14.8037 2.375 14.5937 2.375Z" fill="white"/>
</g>
</g>
<g id="Group_5">
<g id="Group_6">
<path id="Vector_3" d="M0.149562 3.16287C0.056875 3.35031 0 3.55837 0 3.78125V12.2187C0 12.4416 0.0568125 12.6497 0.149531 12.8371L4.97087 8.00015L0.149562 3.16287Z" fill="white"/>
</g>
</g>
<g id="Group_7">
<g id="Group_8">
<path id="Vector_4" d="M15.8504 3.16281L11.0291 8.00016L15.8504 12.8372C15.9431 12.6497 16 12.4417 16 12.2187V3.78125C16 3.55831 15.9431 3.35025 15.8504 3.16281Z" fill="white"/>
</g>
</g>
</g>
</svg>
