<svg width="16" height="17" viewBox="0 0 16 17" fill="none" xmlns="http://www.w3.org/2000/svg">
<g id="X svg" clip-path="url(#clip0_185_210)">
<g id="Group">
<path id="Path 3" fill-rule="evenodd" clip-rule="evenodd" d="M1.02589 8.10617C5.03203 6.36076 7.70341 5.21008 9.04005 4.65413C12.8564 3.06677 13.6494 2.79103 14.1663 2.78193C14.28 2.77992 14.5342 2.8081 14.6988 2.9417C14.8378 3.05451 14.8761 3.2069 14.8944 3.31385C14.9127 3.42081 14.9355 3.66446 14.9174 3.85484C14.7106 6.02781 13.8157 11.301 13.3604 13.7348C13.1678 14.7646 12.7885 15.1099 12.4213 15.1437C11.6232 15.2171 11.0173 14.6163 10.2443 14.1096C9.03482 13.3168 8.35153 12.8232 7.17751 12.0496C5.82072 11.1555 6.70027 10.6641 7.4735 9.86095C7.67585 9.65077 11.192 6.45255 11.2601 6.16242C11.2686 6.12614 11.2765 5.99088 11.1961 5.91946C11.1158 5.84804 10.9972 5.87247 10.9116 5.89189C10.7903 5.91942 8.85812 7.19652 5.11506 9.72319C4.56661 10.0998 4.06985 10.2833 3.62477 10.2737C3.1341 10.2631 2.19025 9.99624 1.4886 9.76816C0.627988 9.48841 -0.0560061 9.3405 0.00355446 8.8654C0.0345773 8.61794 0.375356 8.36486 1.02589 8.10617Z" fill="white"/>
</g>
</g>
<defs>
<clipPath id="clip0_185_210">
<rect width="16" height="16" fill="white" transform="translate(0 0.96582)"/>
</clipPath>
</defs>
</svg>
